<?xml version="1.0" encoding="UTF-8"?>
<svg id="Calque_1" xmlns="http://www.w3.org/2000/svg" version="1.1" viewBox="0 0 1024 1024">
  <!-- Generator: Adobe Illustrator 30.0.0, SVG Export Plug-In . SVG Version: 2.1.1 Build 123)  -->
  <defs>
    <style>
      .st0 {
        fill: #ffffff;
      }
    </style>
  </defs>
  <g>
    <path class="st0" d="M677.5,343.36v-21.58c0-.41,2.07-1.29-.58-2.92h-329.83l-1.5,1.75c-.03.47.91.88.91,1.17v21.58c8.46.6,16.01-2.54,24.5-.59,7.3,1.67,6.21,7.89-.24,10.29-8.97,3.34-27.46,2.75-36.54-.32-37.81-12.79-36.18-70.23,4.65-77.1l348.24.37c44.86,11.38,37.99,74.9-7.87,79.01-5.96.53-32.5,1.56-33.26-6.45-1.02-10.79,25.19-4.68,31.53-5.19Z"/>
    <path class="st0" d="M728.78,210.36c-.22,23.33-14.86,41.56-38,45.37l-354.23.18c-24.89-1.72-41.34-20.84-41.32-45.55h433.56Z"/>
  </g>
  <g>
    <path class="st0" d="M768.41,764.51h-155.01v-22.75c0-1.88,3.52-9.52,5.22-11.11,6.74-6.28,23.72-2.72,24.99-16.98l-19.65-99.15h-223.92c-1.05.75-2.6,8.81-3.09,10.92-5.27,22.88-10.55,51.44-13.96,74.69-.95,6.49-4.01,17.31,1.36,22.4s15.37,2.29,21.58,9.9c.65.79,3.5,5.49,3.5,5.83v26.25h-153.84v-23.92c0-1.2,3.93-8.72,5.22-9.94,7.93-7.48,24.54-.4,30.36-18.61l58-317.59c.25-19.5,30.28-20.39,29.99-.41l-59.33,323.36c-2.49,10.73,6.72,11.84,14.25,7.27,6.63-4.03,7.08-14.69,8.55-21.77,21.81-104.72,35.54-211.37,57.2-316.16-.33-13.68-11.43-26.75-.71-39.11,3.37-3.88,9.22-6.45,14.34-6.64h197.06c22.32,2.6,20.19,24.22,13.46,40.39,17.16,112.13,40.48,223.83,60.77,335.63.96,8.65,20.15,15.22,20.56,3.82l-60.43-322.07c.17-3.33-.49-7.19.05-10.41,2.05-12.31,27.18-11.99,28.73,1.44l59.43,324.33c6.48,16.41,25.42,8,32.48,21.15.57,1.07,2.84,7.03,2.84,7.66v21.58ZM618.06,570.85l-35.48-185.56-3.51-1.15-135.85.62-1.99,3.84-34.12,182.25h68.76l13.65-61.31c-38.76-23.63-19.49-83.87,26.61-79.9,34.7,2.99,52.55,46.94,27.95,72.4-2.44,2.52-9.81,6.4-9.89,8.63l14.52,60.18h69.35Z"/>
  </g>
</svg>