<?xml version="1.0" encoding="UTF-8"?>
<svg id="Calque_1" xmlns="http://www.w3.org/2000/svg" version="1.1" viewBox="0 0 1024 1024">
  <!-- Generator: Adobe Illustrator 30.0.0, SVG Export Plug-In . SVG Version: 2.1.1 Build 123)  -->
  <defs>
    <style>
      .st0 {
        fill: #fff;
      }
    </style>
  </defs>
  <g>
    <g>
      <path d="M648.52,236.16v-18.28c0-.35,1.75-1.1-.49-2.47h-279.41l-1.27,1.48c-.03.4.77.74.77.99v18.28c7.17.51,13.56-2.15,20.76-.5,6.18,1.41,5.26,6.69-.2,8.72-7.6,2.83-23.27,2.33-30.96-.28-32.03-10.83-30.65-59.49,3.94-65.32l295,.31c38,9.64,32.19,63.45-6.67,66.93-5.05.45-27.53,1.32-28.17-5.47-.86-9.14,21.34-3.97,26.71-4.4Z"/>
      <path d="M691.96,123.5c-.19,19.76-12.59,35.21-32.19,38.44l-300.08.15c-21.08-1.46-35.02-17.66-35-38.59h367.28Z"/>
    </g>
    <g>
      <path d="M725.53,592.93h-131.31v-19.27c0-1.59,2.98-8.07,4.42-9.41,5.71-5.32,20.1-2.3,21.17-14.38l-16.64-84h-189.69c-.89.64-2.2,7.46-2.62,9.25-4.46,19.38-8.94,43.57-11.83,63.27-.81,5.5-3.4,14.66,1.15,18.98,4.77,4.52,13.02,1.94,18.28,8.39.55.67,2.96,4.65,2.96,4.94v22.24h-130.33v-20.26c0-1.02,3.33-7.38,4.42-8.42,6.71-6.34,20.79-.34,25.72-15.76l49.13-269.04c.21-16.52,25.65-17.28,25.41-.34l-50.26,273.92c-2.11,9.09,5.7,10.03,12.07,6.16,5.62-3.41,5.99-12.44,7.24-18.44,18.48-88.71,30.11-179.05,48.45-267.83-.28-11.59-9.69-22.66-.6-33.13,2.85-3.29,7.81-5.47,12.15-5.63h166.94c18.91,2.2,17.1,20.52,11.4,34.22,14.54,94.99,34.29,189.61,51.48,284.32.81,7.33,17.07,12.89,17.42,3.24l-51.19-272.83c.14-2.82-.41-6.09.04-8.82,1.74-10.43,23.02-10.15,24.34,1.22l50.34,274.75c5.49,13.9,21.53,6.77,27.51,17.92.48.9,2.41,5.96,2.41,6.49v18.28ZM598.16,428.88l-30.05-157.2-2.97-.98-115.08.53-1.68,3.25-28.91,154.39h58.25l11.57-51.94c-32.84-20.01-16.51-71.05,22.54-67.69,29.4,2.53,44.51,39.76,23.67,61.34-2.07,2.14-8.31,5.42-8.38,7.31l12.3,50.98h58.75Z"/>
      <path class="st0" d="M598.16,428.88h-58.75l-12.3-50.98c.06-1.89,6.31-5.17,8.38-7.31,20.84-21.57,5.73-58.8-23.67-61.34-39.05-3.37-55.38,47.67-22.54,67.69l-11.57,51.94h-58.25l28.91-154.39,1.68-3.25,115.08-.53,2.97.98,30.05,157.2Z"/>
    </g>
  </g>
  <g>
    <path d="M588.31,732.69c0,39.4-31.91,71.34-71.27,71.34s-71.27-31.94-71.27-71.34,31.91-71.34,71.27-71.34,71.27,31.94,71.27,71.34ZM549.7,691.19c-11.65-12.83-33.28-16.61-49.3-10.98-45.08,15.84-40.15,107.73,15.56,108.56,48.87.73,61.32-67.21,33.74-97.58Z"/>
    <path d="M660.12,665.16c39.79,3.51,56.62,40.04,27.07,68.6l-13.69,7.93c8.83,13.34,16.27,28.58,25.81,41.38,2.11,2.83,4.47,6.43,7.23,8.58.49.39,12.87,6.92,6.91,6.92h-22.71c-1.2,0-7.67-2.86-9.07-3.77-12.09-7.75-21.09-39.52-31.6-50.4l-14.68.73c-1.35,3.12.5,6.24.6,9.41.28,9-1.45,23.38.19,31.44.38,1.89,2.25,4.86,3.68,6.2,2.88,2.7,7.87,2.21,6.96,6.38h-45.42c.09-3.52,4.36-4.7,6.46-6.87,4.27-4.42,5.02-9.35,5.43-15.32,1.68-24.51,2.08-66.75-.06-90.95-1.1-12.42-3.95-10.12-10.18-17.27-.97-1.12-.73-1.63-.67-3.01,18.67,1.21,39.33-1.63,57.76,0ZM635.93,732.36h14.32c1.32,0,8.58-1.9,10.34-2.5,19.73-6.78,24.83-38.81,5.64-48.08-1.07-.52-7.49-2.79-8.08-2.79h-21.72c-1.73,1.69-1.42,5.73-1.51,8.34-.2,5.55-.7,43.57,1.02,45.03Z"/>
    <path d="M413.79,700.74c-1.43,1.61-9.42-10.97-10.87-12.35-14.03-13.42-41.12-13.62-57.18-3.88-29.76,18.05-30.42,72.59-4.04,93.82,15.11,12.16,36.82,12.51,54.18,5.29-1.2-10.55,3.48-32.24-3.28-40.42-3.17-3.83-8.99-4.56-10.4-8.86h45.42c-2.37,5.99-7.73,5.79-8.8,13.43-1.86,13.2,1.61,29.4-.57,42.91-21.2,11.73-49.86,14.85-73.32,8.16-59.68-17.03-63.6-101.03-9.79-127.92,22.67-11.33,56.03-10.09,78.67.67v29.15Z"/>
    <path d="M296.3,798.58h-46.4c-.79-4.88,6.66-4.9,8.37-8.91,2.79-6.56-7.48-21.97-9.25-29.02l-50.5-.16c-2.24,7.76-11.58,22.43-8.33,30.16,1.27,3.01,7.39,4.16,7.38,7.93h-37.02l-1-1.98,10.57-10.18c11.8-34.21,30.58-68.19,42.01-102.24.89-2.67,2.41-5.81,2.29-8.63-.18-4.26-4-6.32-4.01-10.39h22.21c1.35,1.14,1.87,2.77,2.64,4.27,17.55,34.07,29.43,74.87,46.37,109.74,1.56,3.22,3.72,8.26,5.94,10.86,2.66,3.11,8.01,4.47,8.74,8.55ZM204.47,746.2h38.51l-19.26-50.41-19.24,50.41Z"/>
    <path d="M795.88,665.16l52.88,124.47c2.29,3.75,8.42,3.89,8.34,8.95h-45.42c-.65-3.91,4.29-4.47,6.95-7.37,1.26-1.37,2.8-2.97,2.83-4.96.02-1.84-9.1-24.48-10.18-25.32l-49.97-.42c-3.31,6.44-12.03,23.14-9.11,29.91.59,1.37,11.54,8.15,6.66,8.15h-37.02c-.27-4.42,6.2-6.22,8.4-9.87,13.59-33.2,32.7-69.49,43.67-103.54,1.15-3.56,2.76-6.61,2.19-10.54-.57-3.93-4.74-5.51-4.9-9.46h24.68ZM805.75,746.2l-19.76-49.41-19.73,49.41h39.49Z"/>
    <path class="st0" d="M549.7,691.19c27.59,30.36,15.14,98.3-33.74,97.58-55.71-.83-60.64-92.72-15.56-108.56,16.02-5.63,37.65-1.84,49.3,10.98Z"/>
    <path class="st0" d="M635.93,732.36c-1.72-1.46-1.21-39.47-1.02-45.03.09-2.61-.22-6.65,1.51-8.34h21.72c.58,0,7,2.27,8.08,2.79,19.19,9.27,14.1,41.3-5.64,48.08-1.76.6-9.02,2.5-10.34,2.5h-14.32Z"/>
    <polygon class="st0" points="204.47 746.2 223.72 695.79 242.98 746.2 204.47 746.2"/>
    <polygon class="st0" points="805.75 746.2 766.26 746.2 785.99 696.79 805.75 746.2"/>
  </g>
</svg>